<svg width="384" height="344" viewBox="0 0 384 344" fill="none" xmlns="http://www.w3.org/2000/svg">
<path opacity="0.8" fill-rule="evenodd" clip-rule="evenodd" d="M77.0998 64.4477C81.0485 46.2728 84.7232 34.9569 88.1181 30.4956C97.5194 18.1478 110.518 24.868 113.282 25.8305C122.99 29.2209 119.833 6.90996 128.162 2.37492C133.713 -0.64699 138.278 3.04694 141.861 13.4567C145.032 3.74497 149.865 -0.703352 156.36 0.0900618C166.104 1.29102 169.514 49.2037 182.902 38.7159C196.294 28.2237 212.711 25.8262 219.724 41.417C221.24 44.7901 221.821 39.557 232.131 21.69C242.44 3.81867 252.72 -4.05477 273.81 6.35066C283.398 11.0765 291.284 23.8882 297.475 44.7814C297.475 74.6016 312.543 92.2562 342.674 97.732C387.876 105.948 352.79 176.701 297.475 197.42C242.157 218.145 114.8 229.33 45.6886 176.974C-0.385851 142.077 10.0845 104.565 77.0968 64.4477H77.0998Z" fill="url(#paint0_linear_7_42346)"/>
<path d="M190.445 327.969C236.474 327.969 273.788 315.394 273.788 299.883C273.788 284.371 236.474 271.797 190.445 271.797C144.416 271.797 107.102 284.371 107.102 299.883C107.102 315.394 144.416 327.969 190.445 327.969Z" fill="url(#paint1_linear_7_42346)"/>
<path opacity="0.675" fill-rule="evenodd" clip-rule="evenodd" d="M331.148 334.926C268.483 357.809 54.588 331.635 31.8218 319.682C20.741 313.859 10.753 302.912 1.86091 286.835C0.865691 285.038 0.240132 282.867 0.0565218 280.574C-0.127088 278.28 0.138746 275.958 0.823306 273.875C1.50787 271.793 2.58321 270.035 3.92507 268.804C5.26694 267.574 6.82056 266.921 8.40639 266.922H382.178C389.935 297.002 372.925 319.669 331.148 334.926Z" fill="url(#paint2_linear_7_42346)"/>
<path d="M254.394 224.612L225.892 176.088C225.218 174.93 224.381 173.998 223.437 173.355C222.493 172.711 221.464 172.372 220.422 172.359H159.136C157.034 172.359 155.036 173.764 153.666 176.088L125.164 224.612V251.25H254.394V224.612Z" fill="url(#paint3_linear_7_42346)"/>
<path d="M246.32 252.227L221.374 209.964C220.771 208.966 220.027 208.169 219.194 207.626C218.36 207.084 217.457 206.809 216.544 206.821H163.018C161.181 206.821 159.385 207.931 158.188 209.964L133.242 252.227V275.44H246.32V252.227Z" fill="url(#paint4_linear_7_42346)"/>
<path d="M254.394 281.781C254.394 285.479 253.251 288.804 251.446 291.033L251.08 291.466C249.649 293.045 247.902 293.898 246.106 293.894H133.455C132.436 293.894 131.462 293.625 130.563 293.131L130.116 292.871C128.643 291.916 127.391 290.36 126.512 288.391C125.633 286.422 125.165 284.125 125.164 281.776V224.906H156.519C159.982 224.906 162.772 229.055 162.772 234.089V234.154C162.772 239.192 165.595 243.254 169.059 243.254H210.499C212.164 243.252 213.76 242.29 214.939 240.577C216.117 238.865 216.781 236.543 216.786 234.119C216.786 229.064 219.579 224.906 223.039 224.906H254.397L254.394 281.781Z" fill="url(#paint5_linear_7_42346)"/>
<defs>
<linearGradient id="paint0_linear_7_42346" x1="198.572" y1="160.2" x2="198.572" y2="-37.8649" gradientUnits="userSpaceOnUse">
<stop stop-color="#DEDEDE" stop-opacity="0"/>
<stop offset="1" stop-color="#A9A9A9" stop-opacity="0.3"/>
</linearGradient>
<linearGradient id="paint1_linear_7_42346" x1="181.76" y1="327.969" x2="181.76" y2="271.797" gradientUnits="userSpaceOnUse">
<stop stop-color="white" stop-opacity="0"/>
<stop offset="1" stop-color="#96A1C5" stop-opacity="0.373"/>
</linearGradient>
<linearGradient id="paint2_linear_7_42346" x1="192" y1="344.002" x2="192" y2="251.756" gradientUnits="userSpaceOnUse">
<stop stop-color="white" stop-opacity="0"/>
<stop offset="1" stop-color="#919191" stop-opacity="0.15"/>
</linearGradient>
<linearGradient id="paint3_linear_7_42346" x1="189.779" y1="172.359" x2="189.779" y2="207.821" gradientUnits="userSpaceOnUse">
<stop stop-color="#5389F5"/>
<stop offset="1" stop-color="#416FDC"/>
</linearGradient>
<linearGradient id="paint4_linear_7_42346" x1="204.871" y1="275.44" x2="204.871" y2="203.172" gradientUnits="userSpaceOnUse">
<stop stop-color="#DCE9FF"/>
<stop offset="1" stop-color="#B6CFFF"/>
</linearGradient>
<linearGradient id="paint5_linear_7_42346" x1="189.781" y1="224.906" x2="189.781" y2="293.894" gradientUnits="userSpaceOnUse">
<stop stop-color="#7CA5F7"/>
<stop offset="1" stop-color="#C4D6FC"/>
</linearGradient>
</defs>
</svg>
