<svg width="98" height="32" viewBox="0 0 98 32" fill="none" xmlns="http://www.w3.org/2000/svg">
    <path
            d="M0.370488 25.3164L0 24.1208L2.05452 23.4175C2.52605 23.2534 2.90777 22.9545 3.19967 22.5208C3.50279 22.0871 3.65436 21.6065 3.65436 21.079V15.5054H4.7995V20.9735C4.7995 21.3838 4.73775 21.7765 4.61426 22.1516C4.50199 22.5384 4.33358 22.89 4.10905 23.2065C3.89573 23.5347 3.6319 23.816 3.31755 24.0505C3.01442 24.2966 2.67762 24.49 2.30713 24.6307L0.370488 25.3164Z"
            fill="#FF003D"/>
    <path
            d="M10.7662 20.6922C10.7662 20.8563 10.6877 20.9384 10.5305 20.9384H9.90739C9.55935 20.9384 9.22816 20.868 8.91381 20.7274C8.59945 20.5867 8.32439 20.3933 8.08863 20.1472C7.85286 19.901 7.66762 19.6138 7.5329 19.2856C7.39818 18.9574 7.33081 18.6116 7.33081 18.2483V9.35156H8.4928V18.2307C8.4928 18.5823 8.61068 18.8812 8.84645 19.1274C9.09344 19.3735 9.37972 19.4966 9.7053 19.4966H10.5305C10.5978 19.4966 10.654 19.5259 10.6989 19.5845C10.7438 19.6314 10.7662 19.69 10.7662 19.7604V20.6922Z"
            fill="#FF003D"/>
    <path
            d="M10.5246 20.9384C10.3674 20.9384 10.2888 20.8563 10.2888 20.6922V19.7604C10.2888 19.7017 10.3112 19.6431 10.3562 19.5845C10.4011 19.5259 10.4572 19.4966 10.5246 19.4966H13.2695C13.8084 19.4966 14.3249 19.4028 14.8188 19.2153C15.3241 19.0278 15.7731 18.7464 16.1661 18.3713L17.648 16.9296C17.7828 16.8006 17.8838 16.7186 17.9512 16.6834L13.9263 15.4351C13.713 15.3647 13.5109 15.3882 13.3201 15.5054C13.1404 15.6109 13.0169 15.7691 12.9496 15.9801L12.5117 17.3867L11.5013 17.0878L11.8886 15.6988C11.9672 15.4175 12.0907 15.1713 12.2591 14.9604C12.4387 14.7376 12.6408 14.5618 12.8654 14.4329C13.1011 14.3039 13.3481 14.2278 13.6063 14.2043C13.8758 14.1691 14.1396 14.1926 14.3978 14.2746L20.8982 16.3142L20.5446 17.4922L19.871 17.2812C19.5903 17.2226 19.3489 17.2226 19.1468 17.2812C18.956 17.3398 18.7763 17.4395 18.6079 17.5801V18.2307C18.6079 18.5823 18.7258 18.8812 18.9616 19.1274C19.2086 19.3735 19.5005 19.4966 19.8373 19.4966H22.0602C22.1276 19.4966 22.1837 19.5259 22.2286 19.5845C22.2735 19.6314 22.296 19.6842 22.296 19.7428V20.6922C22.296 20.8563 22.2174 20.9384 22.0602 20.9384H20.0394C19.7025 20.9384 19.3938 20.8798 19.1131 20.7626C18.8325 20.6336 18.5855 20.4637 18.3722 20.2527C18.1589 20.03 17.9848 19.7721 17.8501 19.479C17.7266 19.1743 17.648 18.8519 17.6143 18.512L16.4524 19.6373C16.0033 20.0593 15.4925 20.3816 14.9199 20.6043C14.3585 20.827 13.7747 20.9384 13.1685 20.9384H10.5246ZM15.1557 23.0483H16.5871V24.5428H15.1557V23.0483Z"
            fill="#FF003D"/>
    <path
            d="M22.053 19.4966H25.0505C25.2077 19.4966 25.2863 19.5787 25.2863 19.7428V20.6922C25.2863 20.8563 25.2077 20.9384 25.0505 20.9384H22.053C21.8958 20.9384 21.8172 20.8563 21.8172 20.6922V19.7428C21.8172 19.5787 21.8958 19.4966 22.053 19.4966Z"
            fill="#FF003D"/>
    <path
            d="M25.0461 19.4966H28.0437C28.2008 19.4966 28.2794 19.5787 28.2794 19.7428V20.6922C28.2794 20.8563 28.2008 20.9384 28.0437 20.9384H25.0461C24.8889 20.9384 24.8103 20.8563 24.8103 20.6922V19.7428C24.8103 19.5787 24.8889 19.4966 25.0461 19.4966Z"
            fill="#FF003D"/>
    <path
            d="M28.0392 19.4966H31.0368C31.1939 19.4966 31.2725 19.5787 31.2725 19.7428V20.6922C31.2725 20.8563 31.1939 20.9384 31.0368 20.9384H28.0392C27.882 20.9384 27.8034 20.8563 27.8034 20.6922V19.7428C27.8034 19.5787 27.882 19.4966 28.0392 19.4966Z"
            fill="#FF003D"/>
    <path
            d="M31.0323 19.4966H34.0299C34.187 19.4966 34.2656 19.5787 34.2656 19.7428V20.6922C34.2656 20.8563 34.187 20.9384 34.0299 20.9384H31.0323C30.8751 20.9384 30.7965 20.8563 30.7965 20.6922V19.7428C30.7965 19.5787 30.8751 19.4966 31.0323 19.4966Z"
            fill="#FF003D"/>
    <path
            d="M37.966 19.4966H40.5258V17.1406C40.5258 16.8358 40.4191 16.5779 40.2058 16.3669C40.0037 16.1442 39.7511 16.0329 39.448 16.0329H38.3534C38.0951 16.0329 37.8706 16.1208 37.6798 16.2966C37.4889 16.4607 37.3654 16.6717 37.3093 16.9296L37.0567 18.3538C37.0005 18.6585 37.0623 18.9281 37.2419 19.1626C37.4328 19.3853 37.6741 19.4966 37.966 19.4966ZM35.861 18.3889L36.2146 16.5779C36.2595 16.3083 36.3494 16.0563 36.4841 15.8219C36.6188 15.5875 36.7816 15.3882 36.9725 15.2241C37.1633 15.06 37.3766 14.9311 37.6124 14.8373C37.8594 14.7435 38.1176 14.6966 38.387 14.6966H39.3301C39.6557 14.6966 39.9588 14.7611 40.2395 14.89C40.5314 15.019 40.784 15.1948 40.9973 15.4175C41.2106 15.6402 41.379 15.8981 41.5025 16.1911C41.626 16.4842 41.6878 16.8006 41.6878 17.1406V19.356C41.6878 19.8248 41.5474 20.2058 41.2667 20.4988C40.9973 20.7919 40.6268 20.9384 40.1553 20.9384H38.1008C37.7415 20.9384 37.4103 20.8505 37.1072 20.6746C36.8153 20.4871 36.5739 20.1882 36.383 19.7779C36.181 20.1882 35.9115 20.4871 35.5747 20.6746C35.2379 20.8505 34.8843 20.9384 34.5138 20.9384H34.0254C33.8682 20.9384 33.7896 20.8563 33.7896 20.6922V19.7428C33.7896 19.6842 33.8121 19.6314 33.857 19.5845C33.9019 19.5259 33.958 19.4966 34.0254 19.4966H34.5643C34.8899 19.4966 35.1705 19.3911 35.4063 19.1801C35.6533 18.9691 35.8049 18.7054 35.861 18.3889Z"
            fill="#FF003D"/>
    <path
            d="M46.0098 20.9384C45.6618 20.9384 45.3418 20.8622 45.0499 20.7098C44.758 20.5574 44.511 20.3523 44.3089 20.0944C44.1068 19.8365 43.9609 19.5435 43.8711 19.2153C43.7813 18.8754 43.77 18.5296 43.8374 18.1779L44.1237 16.5779C44.1686 16.3083 44.2584 16.0622 44.3931 15.8395C44.5279 15.605 44.6906 15.4058 44.8815 15.2417C45.0724 15.0776 45.2857 14.9486 45.5214 14.8549C45.7684 14.7611 46.0266 14.7142 46.2961 14.7142H47.2391C47.5647 14.7142 47.8679 14.7787 48.1485 14.9076C48.4404 15.0365 48.693 15.2124 48.9063 15.4351C49.1197 15.6461 49.2881 15.9039 49.4116 16.2087C49.535 16.5017 49.5968 16.8182 49.5968 17.1582V19.4966H50.9272C50.9945 19.4966 51.0507 19.5259 51.0956 19.5845C51.1405 19.6314 51.1629 19.6842 51.1629 19.7428V20.6922C51.1629 20.8563 51.0844 20.9384 50.9272 20.9384H49.58V21.1494C49.5575 21.9464 49.3161 22.6615 48.8558 23.2944C48.4067 23.9391 47.8117 24.3963 47.0707 24.6658L45.1509 25.3516L44.7805 24.1384L46.8013 23.4351C47.2841 23.2593 47.6714 22.9604 47.9633 22.5384C48.2664 22.1281 48.418 21.6534 48.418 21.1142V20.7977C48.3282 20.8563 48.2215 20.8974 48.098 20.9208C47.9857 20.9325 47.8679 20.9384 47.7444 20.9384H46.0098ZM45.8919 19.4966H48.4348V17.1582C48.4348 16.8534 48.3282 16.5955 48.1148 16.3845C47.9128 16.1618 47.6658 16.0505 47.3739 16.0505H46.2624C46.0042 16.0505 45.7797 16.1325 45.5888 16.2966C45.3979 16.4607 45.2744 16.6776 45.2183 16.9472L44.9657 18.3538C44.9096 18.6585 44.9769 18.9281 45.1678 19.1626C45.3586 19.3853 45.6 19.4966 45.8919 19.4966Z"
            fill="#FF003D"/>
    <path
            d="M50.9315 19.4966H53.9291C54.0863 19.4966 54.1649 19.5787 54.1649 19.7428V20.6922C54.1649 20.8563 54.0863 20.9384 53.9291 20.9384H50.9315C50.7743 20.9384 50.6958 20.8563 50.6958 20.6922V19.7428C50.6958 19.5787 50.7743 19.4966 50.9315 19.4966Z"
            fill="#FF003D"/>
    <path
            d="M55.6255 19.4966C55.9623 19.4966 56.2486 19.3735 56.4844 19.1274C56.7201 18.8695 56.838 18.5706 56.838 18.2307V15.0131H58V18.2483C58 18.6234 57.9326 18.975 57.7979 19.3032C57.6632 19.6314 57.478 19.9186 57.2422 20.1647C57.0064 20.3992 56.7314 20.5867 56.417 20.7274C56.1139 20.868 55.7827 20.9384 55.4234 20.9384H53.9246C53.7675 20.9384 53.6889 20.8563 53.6889 20.6922V19.7604C53.6889 19.69 53.7113 19.6314 53.7562 19.5845C53.8011 19.5259 53.8573 19.4966 53.9246 19.4966H55.6255ZM54.2446 24.5428H55.676V23.0483H54.2446V24.5428Z"
            fill="#FF003D"/>
    <path
            fill-rule="evenodd" clip-rule="evenodd"
            d="M67.7067 6.4C67.7067 3.8121 69.8121 1.70667 72.4 1.70667H91.6C94.1879 1.70667 96.2933 3.8121 96.2933 6.4V25.6C96.2933 28.1879 94.1879 30.2933 91.6 30.2933H72.4C69.8121 30.2933 67.7067 28.1879 67.7067 25.6V6.4ZM91.6 0H72.4C68.8653 0 66 2.86536 66 6.4V25.6C66 29.1347 68.8653 32 72.4 32H91.6C95.1347 32 98 29.1347 98 25.6V6.4C98 2.86536 95.1347 0 91.6 0ZM74.63 22.9846C74.6298 22.985 74.6295 22.9854 74.6292 22.9857C74.5269 23.0928 74.5243 23.2623 74.638 23.3708C74.7459 23.4738 74.9077 23.4724 75.0142 23.3708C75.0158 23.3692 75.018 23.3688 75.0195 23.3672L76.5808 21.806H77.5618C77.6344 21.806 77.7039 21.7771 77.7552 21.7258L79.4148 20.0662C79.4931 19.9879 79.5166 19.8704 79.4741 19.7681C79.4319 19.6657 79.332 19.5992 79.2214 19.5992H78.3825V18.7785C78.3825 18.6679 78.3159 18.568 78.2136 18.5258C78.1113 18.4833 77.9935 18.5071 77.9155 18.5851L76.2741 20.2447C76.2228 20.296 76.1939 20.3655 76.1939 20.4381V21.4191L74.6327 22.9804C74.6319 22.9812 74.6314 22.9821 74.6309 22.9831C74.6306 22.9836 74.6303 22.9841 74.63 22.9846ZM74.8261 18.505C75.5261 18.505 76.1879 18.6831 76.7839 18.9613L75.9447 19.8005C75.5925 19.6833 75.2171 19.6175 74.8261 19.6175C72.8652 19.6175 71.2698 21.2129 71.2698 23.1738C71.2698 25.1347 72.8652 26.7302 74.8261 26.7302C76.787 26.7302 78.3825 25.1348 78.3825 23.1738C78.3825 22.7828 78.3166 22.4074 78.1995 22.0552L79.0387 21.216C79.3168 21.812 79.495 22.4738 79.495 23.1738C79.495 25.7382 77.3905 27.8427 74.8261 27.8427C72.2617 27.8427 70.1573 25.7382 70.1573 23.1738C70.1573 20.6094 72.2617 18.505 74.8261 18.505ZM75.6468 20.863C75.3888 20.771 75.1153 20.7117 74.8261 20.7117C73.4684 20.7117 72.364 21.8162 72.364 23.1738C72.364 24.5315 73.4685 25.6359 74.8261 25.6359C76.1838 25.6359 77.2882 24.5315 77.2882 23.1738C77.2882 22.8847 77.2289 22.6111 77.1369 22.3531H76.8073L76.1749 22.9856C76.1761 22.9942 76.1774 23.0028 76.1786 23.0115C76.1863 23.0649 76.1939 23.1183 76.1939 23.1738C76.1939 23.928 75.5803 24.5417 74.8261 24.5417C74.0719 24.5417 73.4583 23.928 73.4583 23.1738C73.4583 22.4197 74.0719 21.806 74.8261 21.806C74.8816 21.806 74.935 21.8137 74.9884 21.8214C74.9971 21.8226 75.0057 21.8238 75.0144 21.8251L75.6468 21.1926V20.863Z"
            fill="#FF003D"/>
</svg>